# xmcd CD database file
# Copyright (C) 1993-1996 Ti Kan
#
# Track frame offsets:
#  150
#  17834
#  38753
#  45235
#  90765
#  105908
#  127654
#  140509
#  149875
#  161550
#  178576
#  223730
#  243019
#  255993
#
# Disc length: 3548 seconds
#
# Revision: 1
# Processed by: cddbd v1.5PL3 Copyright (c) Steve Scherf et al.
# Submitted via: Advanced CD Ripper Pro 2.0
#
DISCID=ab0dda0e
DTITLE=the mix papa - mix
DYEAR=2004
DGENRE=country
TTITLE0=Track01
TTITLE1=Track02
TTITLE2=Track03
TTITLE3=Track04
TTITLE4=Track05
TTITLE5=Track06
TTITLE6=Track07
TTITLE7=Track08
TTITLE8=Track09
TTITLE9=Track10
TTITLE10=Track11
TTITLE11=Track12
TTITLE12=Track13
TTITLE13=Track14
EXTD=
EXTT0=
EXTT1=
EXTT2=
EXTT3=
EXTT4=
EXTT5=
EXTT6=
EXTT7=
EXTT8=
EXTT9=
EXTT10=
EXTT11=
EXTT12=
EXTT13=
PLAYORDER=
